RBDS016runT45_grf
version=1
nRows=12
nColumns=19
inDegrees=no
endheader
time	ground_force_r_vx	ground_force_r_vy	ground_force_r_vz	ground_force_r_px	ground_force_r_py	ground_force_r_pz	ground_force_r_mx	ground_force_r_my	ground_force_r_mz	ground_force_l_vx	ground_force_l_vy	ground_force_l_vz	ground_force_l_px	ground_force_l_py	ground_force_l_pz	ground_force_l_mx	ground_force_l_my	ground_force_l_mz
     22.49800000	      0.00000000	      0.00000000	      0.00000000	      0.00000000	      0.00000000	      0.00000000	      0.00000000	      0.00000000	      0.00000000	    115.74337584	   1517.01294542	     52.16753291	      2.22005546	      0.00000000	      0.93411984	     -0.00000000	     12.63310955	      0.00000000
     22.49900000	      0.00000000	      0.00000000	      0.00000000	      0.00000000	      0.00000000	      0.00000000	      0.00000000	      0.00000000	      0.00000000	    122.32315576	   1497.65346285	     50.92954062	      2.21608210	      0.00000000	      0.93392198	     -0.00000000	     12.54658387	      0.00000000
     22.50000000	      0.00000000	      0.00000000	      0.00000000	      0.00000000	      0.00000000	      0.00000000	      0.00000000	      0.00000000	      0.00000000	    128.90293567	   1478.29398028	     49.69154832	      2.21210875	      0.00000000	      0.93372412	     -0.00000000	     12.46005819	      0.00000000
     22.50100000	      0.00000000	      0.00000000	      0.00000000	      0.00000000	      0.00000000	      0.00000000	      0.00000000	      0.00000000	      0.00000000	    134.97145532	   1457.63458223	     48.25891575	      2.20810325	      0.00000000	      0.93354732	     -0.00000000	     12.34957512	      0.00000000
     22.50200000	      0.00000000	      0.00000000	      0.00000000	      0.00000000	      0.00000000	      0.00000000	      0.00000000	      0.00000000	      0.00000000	    141.03997498	   1436.97518419	     46.82628317	      2.20409774	      0.00000000	      0.93337051	     -0.00000000	     12.23909205	      0.00000000
     22.50300000	      0.00000000	      0.00000000	      0.00000000	      0.00000000	      0.00000000	      0.00000000	      0.00000000	      0.00000000	      0.00000000	    147.10849463	   1416.31578615	     45.39365060	      2.20009223	      0.00000000	      0.93319371	     -0.00000000	     12.12860898	      0.00000000
     22.50400000	      0.00000000	      0.00000000	      0.00000000	      0.00000000	      0.00000000	      0.00000000	      0.00000000	      0.00000000	      0.00000000	    152.78111419	   1394.89874234	     43.85641870	      2.19606626	      0.00000000	      0.93303003	     -0.00000000	     12.00352987	      0.00000000
     22.50500000	      0.00000000	      0.00000000	      0.00000000	      0.00000000	      0.00000000	      0.00000000	      0.00000000	      0.00000000	      0.00000000	    158.25578369	   1373.10287566	     42.26688714	      2.19203006	      0.00000000	      0.93287292	     -0.00000000	     11.87115274	      0.00000000
     22.50600000	      0.00000000	      0.00000000	      0.00000000	      0.00000000	      0.00000000	      0.00000000	      0.00000000	      0.00000000	      0.00000000	    163.73045319	   1351.30700897	     40.67735559	      2.18799385	      0.00000000	      0.93271581	     -0.00000000	     11.73877561	      0.00000000
     22.50700000	      0.00000000	      0.00000000	      0.00000000	      0.00000000	      0.00000000	      0.00000000	      0.00000000	      0.00000000	      0.00000000	    168.98286454	   1329.19264083	     39.04930072	      2.18394835	      0.00000000	      0.93256468	     -0.00000000	     11.59994428	      0.00000000
     22.50800000	      0.00000000	      0.00000000	      0.00000000	      0.00000000	      0.00000000	      0.00000000	      0.00000000	      0.00000000	      0.00000000	    173.79075956	   1306.44126978	     37.34419923	      2.17988426	      0.00000000	      0.93242551	     -0.00000000	     11.44820455	      0.00000000
     22.50900000	      0.00000000	      0.00000000	      0.00000000	      0.00000000	      0.00000000	      0.00000000	      0.00000000	      0.00000000	      0.00000000	    178.59865458	   1283.68989873	     35.63909774	      2.17582017	      0.00000000	      0.93228635	     -0.00000000	     11.29646482	      0.00000000
